<?xml version="1.0" encoding="UTF-8"?>
<!DOCTYPE svg PUBLIC "-//W3C//DTD SVG 1.1//EN" "http://www.w3.org/Graphics/SVG/1.1/DTD/svg11.dtd">
<svg version="1.1" xmlns="http://www.w3.org/2000/svg" xmlns:xlink="http://www.w3.org/1999/xlink" x="0" y="0" width="75" height="75" viewBox="0, 0, 75, 75">
    <g>
      <path d="M51.339,0 L23.672,0 C22.589,0 21.505,0.458 20.755,1.208 L1.214,20.75 C0.464,21.5 0.005,22.583 0.005,23.667 L0.005,51.292 C0.005,52.417 0.464,53.458 1.214,54.25 L20.714,73.75 C21.505,74.542 22.589,75 23.672,75 L51.297,75 C52.422,75 53.464,74.542 54.255,73.792 L73.755,54.292 C74.547,53.5 74.964,52.458 74.964,51.333 L74.964,23.667 C74.964,22.542 74.505,21.5 73.755,20.708 L54.255,1.208 C53.505,0.458 52.422,0 51.339,0 z" fill="#FF4428"/>
    </g>
</svg>
