<?xml version="1.0" encoding="UTF-8"?>
<!DOCTYPE svg PUBLIC "-//W3C//DTD SVG 1.1//EN" "http://www.w3.org/Graphics/SVG/1.1/DTD/svg11.dtd">
<svg version="1.1" xmlns="http://www.w3.org/2000/svg" xmlns:xlink="http://www.w3.org/1999/xlink" x="0" y="0" width="300" height="300" viewBox="0, 0, 300, 300">
  <defs>
    <clipPath id="Clip_1">
      <path d="M169.786,115.746 L202.243,115.746 L202.243,152.203 L169.786,152.203 z M186.014,126.746 C190.006,126.746 193.243,129.983 193.243,133.975 C193.243,137.967 190.006,141.203 186.014,141.203 C182.022,141.203 178.786,137.967 178.786,133.975 C178.786,129.983 182.022,126.746 186.014,126.746 z M186.014,123.746 C180.365,123.746 175.786,128.326 175.786,133.975 C175.786,139.624 180.365,144.203 186.014,144.203 C191.663,144.203 196.243,139.624 196.243,133.975 C196.243,128.326 191.663,123.746 186.014,123.746 z"/>
    </clipPath>
    <filter id="Shadow_2">
      <feGaussianBlur in="SourceAlpha" stdDeviation="2.5"/>
      <feOffset dx="0" dy="2" result="offsetblur"/>
      <feFlood flood-color="#000000"/>
      <feComposite in2="offsetblur" operator="in"/>
    </filter>
    <clipPath id="Clip_3">
      <path d="M61.245,68.44 L238.755,68.44 L238.755,231.56 L61.245,231.56 z M193.952,90.232 C197.906,90.232 201.4,92.807 202.687,96.485 L214.365,131.61 L85.635,131.61 L97.312,96.485 C98.6,92.807 102.094,90.232 106.048,90.232 L193.952,90.232 z M99.427,150 C107.059,150 113.22,156.161 113.22,163.792 C113.22,171.424 107.059,177.585 99.427,177.585 C91.796,177.585 85.635,171.424 85.635,163.792 C85.635,156.161 91.796,150 99.427,150 z M200.573,150 C208.204,150 214.365,156.161 214.365,163.792 C214.365,171.424 208.204,177.585 200.573,177.585 C192.941,177.585 186.78,171.424 186.78,163.792 C186.78,156.161 192.941,150 200.573,150 z M200.573,76.44 L99.427,76.44 C93.359,76.44 88.301,80.302 86.37,85.727 L68.256,137.863 C67.613,139.794 67.245,141.816 67.245,143.931 L67.245,209.768 C67.245,217.4 73.405,223.56 81.037,223.56 C88.669,223.56 94.83,217.4 94.83,209.768 L94.83,205.17 L205.17,205.17 L205.17,209.768 C205.17,217.308 211.331,223.56 218.963,223.56 C226.503,223.56 232.755,217.4 232.755,209.768 L232.755,143.931 C232.755,141.908 232.387,139.794 231.744,137.863 L213.63,85.727 C211.791,80.302 206.641,76.44 200.573,76.44 z"/>
    </clipPath>
    <filter id="Shadow_4">
      <feGaussianBlur in="SourceAlpha" stdDeviation="2.5"/>
      <feOffset dx="0" dy="2" result="offsetblur"/>
      <feFlood flood-color="#000000"/>
      <feComposite in2="offsetblur" operator="in"/>
    </filter>
  </defs>
  <g id="Layer_1">
    <path d="M150,300 C67.157,300 0,232.843 0,150 C0,67.157 67.157,-0 150,-0 C232.843,-0 300,67.157 300,150 C300,232.843 232.843,300 150,300 z" fill="#87BAD8"/>
    <path d="M123.867,114.917 L17.281,219.891 C5.626,198.495 0.306,174.233 -0,150 C-0.099,143.931 0.494,137.896 1.106,131.868 L1.822,129.272 L123.867,114.917 z" fill="#FFD191"/>
    <path d="M176.133,114.917 L282.719,219.891 C256.918,269.204 205.244,299.301 150.008,300 L149.992,300 C94.326,300.188 43.635,268.408 17.281,219.891 L123.867,114.917 L176.133,114.917 z" fill="#384953"/>
    <path d="M176.133,114.917 L298.178,129.272 L298.893,131.867 C299.707,137.879 299.923,143.942 300,150.001 C299.855,174.187 294.307,198.559 282.72,219.891 L282.719,219.891 L176.133,114.917 z" fill="#FFD191"/>
    <path d="M116.325,144.855 C108.058,144.855 101.356,138.153 101.356,129.886 C101.356,121.619 108.058,114.917 116.325,114.917 C124.592,114.917 131.294,121.619 131.294,129.886 C131.294,138.153 124.592,144.855 116.325,144.855 z" fill="#FDBA56"/>
    <path d="M185.514,151.403 C177.247,151.403 170.545,144.701 170.545,136.434 C170.545,128.167 177.247,121.465 185.514,121.465 C193.781,121.465 200.483,128.167 200.483,136.434 C200.483,144.701 193.781,151.403 185.514,151.403 z" fill="#FDBA56"/>
    <path d="M116.325,112.082 C112.203,112.082 108.862,108.74 108.862,104.619 C108.862,100.497 112.203,97.156 116.325,97.156 C120.446,97.156 123.787,100.497 123.787,104.619 C123.787,108.74 120.446,112.082 116.325,112.082 z" fill="#FDBA56"/>
    <path d="M185.514,117.723 C181.393,117.723 178.052,114.382 178.052,110.261 C178.052,106.139 181.393,102.798 185.514,102.798 C189.636,102.798 192.977,106.139 192.977,110.261 C192.977,114.382 189.636,117.723 185.514,117.723 z" fill="#FDBA56"/>
    <g>
      <path d="M186.014,123.746 C191.663,123.746 196.243,128.326 196.243,133.975 C196.243,139.624 191.663,144.203 186.014,144.203 C180.365,144.203 175.786,139.624 175.786,133.975 C175.786,128.326 180.365,123.746 186.014,123.746 z M186.014,126.746 C182.022,126.746 178.786,129.983 178.786,133.975 C178.786,137.967 182.022,141.203 186.014,141.203 C190.006,141.203 193.243,137.967 193.243,133.975 C193.243,129.983 190.006,126.746 186.014,126.746 z" clip-path="url(#Clip_1)" filter="url(#Shadow_2)" fill="rgba(0,0,0,0.569)"/>
      <path d="M186.014,142.703 C181.194,142.703 177.286,138.795 177.286,133.975 C177.286,129.154 181.194,125.246 186.014,125.246 C190.835,125.246 194.743,129.154 194.743,133.975 C194.743,138.795 190.835,142.703 186.014,142.703 z" fill-opacity="0" stroke="#F9AA33" stroke-width="3"/>
    </g>
    <g id="directions_car-24px">
      <g>
        <path d="M200.573,76.44 C206.641,76.44 211.791,80.302 213.63,85.727 L231.744,137.863 C232.387,139.794 232.755,141.908 232.755,143.931 L232.755,209.768 C232.755,217.4 226.503,223.56 218.963,223.56 C211.331,223.56 205.17,217.308 205.17,209.768 L205.17,205.17 L94.83,205.17 L94.83,209.768 C94.83,217.4 88.669,223.56 81.037,223.56 C73.405,223.56 67.245,217.4 67.245,209.768 L67.245,143.931 C67.245,141.816 67.613,139.794 68.256,137.863 L86.37,85.727 C88.301,80.302 93.359,76.44 99.427,76.44 L200.573,76.44 z M200.573,150 C192.941,150 186.78,156.161 186.78,163.792 C186.78,171.424 192.941,177.585 200.573,177.585 C208.204,177.585 214.365,171.424 214.365,163.792 C214.365,156.161 208.204,150 200.573,150 z M99.427,150 C91.796,150 85.635,156.161 85.635,163.792 C85.635,171.424 91.796,177.585 99.427,177.585 C107.059,177.585 113.22,171.424 113.22,163.792 C113.22,156.161 107.059,150 99.427,150 z M193.952,90.232 L106.048,90.232 C102.094,90.232 98.6,92.807 97.312,96.485 L85.635,131.61 L214.365,131.61 L202.687,96.485 C201.4,92.807 197.906,90.232 193.952,90.232 z" clip-path="url(#Clip_3)" filter="url(#Shadow_4)" fill="rgba(0,0,0,0.219)"/>
        <path d="M213.63,85.727 C211.791,80.302 206.641,76.44 200.573,76.44 L99.427,76.44 C93.359,76.44 88.301,80.302 86.37,85.727 L68.256,137.863 C67.613,139.794 67.245,141.816 67.245,143.931 L67.245,209.768 C67.245,217.4 73.405,223.56 81.037,223.56 C88.669,223.56 94.83,217.4 94.83,209.768 L94.83,205.17 L205.17,205.17 L205.17,209.768 C205.17,217.308 211.331,223.56 218.963,223.56 C226.503,223.56 232.755,217.4 232.755,209.768 L232.755,143.931 C232.755,141.908 232.387,139.794 231.744,137.863 L213.63,85.727 z M99.427,177.585 C91.796,177.585 85.635,171.424 85.635,163.793 C85.635,156.161 91.796,150 99.427,150 C107.059,150 113.22,156.161 113.22,163.793 C113.22,171.424 107.059,177.585 99.427,177.585 z M200.573,177.585 C192.941,177.585 186.78,171.424 186.78,163.793 C186.78,156.161 192.941,150 200.573,150 C208.204,150 214.365,156.161 214.365,163.793 C214.365,171.424 208.204,177.585 200.573,177.585 z M85.635,131.61 L97.313,96.485 C98.6,92.807 102.094,90.232 106.048,90.232 L193.952,90.232 C197.906,90.232 201.4,92.807 202.687,96.485 L214.365,131.61 L85.635,131.61 z" fill="#F9AA33"/>
      </g>
    </g>
    <path d="M300,300 L176.133,97.156" fill="#F9AA33"/>
    <path d="M176.133,114.917" fill="#87BAD8"/>
  </g>
</svg>
