<?xml version="1.0" encoding="UTF-8"?>
<!DOCTYPE svg PUBLIC "-//W3C//DTD SVG 1.1//EN" "http://www.w3.org/Graphics/SVG/1.1/DTD/svg11.dtd">
<svg>
  <g id="roundabout">
    <path d="M8.876,1.85 L9.188,1.885 L11.841,2.184 L12.357,2.242 L11.99,2.609 L11.61,2.989 L14.935,6.318 C16.118,7.153 16.855,8.417 17.131,9.824 L18.089,8.866 L17.67,8.447 L17.303,8.08 L17.819,8.022 L20.472,7.723 L20.784,7.688 L20.748,8 L20.449,10.653 L20.391,11.169 L20.024,10.801 L19.62,10.397 L16.051,13.966 C15.256,14.835 14.276,15.478 13.115,15.701 L13.115,18.987 L10.953,18.987 L10.95,18.74 L10.916,15.449 L10.916,13.368 L11.262,13.514 C11.581,13.648 11.507,13.619 11.532,13.621 C11.513,13.619 11.829,13.637 12.066,13.662 C13.738,13.662 15.093,12.306 15.093,10.634 C15.093,8.963 13.738,7.607 12.076,7.607 C11.132,7.644 10.547,8.064 9.335,9.349 L9.307,9.329 L9.326,9.351 C8.59,10.01 8.59,10.01 8.347,10.227 C8.111,10.438 8.111,10.438 7.421,11.054 L5.944,12.531 L6.697,13.283 L6.181,13.342 L3.528,13.641 L3.216,13.676 L3.252,13.364 L3.551,10.711 L3.609,10.195 L4.414,11 L7.957,7.458 C8.754,6.459 9.892,5.822 11.139,5.58 L10.079,4.52 L9.636,4.963 L9.269,5.33 L9.211,4.814 L8.911,2.161 L8.876,1.85 z"/>
  </g>
</svg>
